<?xml version="1.0" encoding="UTF-8"?>
<svg width="1200pt" height="1200pt" version="1.1" viewBox="0 0 1200 1200" xmlns="http://www.w3.org/2000/svg">
 <path d="m1047.1 200 0.80078-0.66797-47.199-47.199v0.80078c-115.7-103.79-267.16-158.64-422.48-152.99s-302.4 71.359-410.25 183.29c-107.85 111.93-168.05 261.34-167.93 416.77-0.19922 147.65 54.281 290.14 152.93 400h-0.80078l47.867 47.867 0.66797-0.80078c115.75 103.22 266.97 157.61 421.95 151.77 154.98-5.8438 301.67-71.469 409.31-183.11 107.65-111.64 167.88-260.63 168.07-415.72 0.19922-147.65-54.281-290.14-152.93-400zm-980.4 400c0.050781-137.53 53.234-269.73 148.44-368.98 95.203-99.254 225.07-157.89 362.48-163.67 137.41-5.7812 271.75 41.746 374.95 132.66l-752.54 752.54c-86.074-97.246-133.51-222.67-133.33-352.54zm533.33 533.33c-129.86 0.17969-255.29-47.258-352.54-133.33l752.54-752.54c90.91 103.2 138.44 237.54 132.66 374.95-5.7812 137.41-64.418 267.28-163.67 362.48-99.258 95.203-231.45 148.39-368.98 148.44z" fill="currentColor"/>
</svg>
