<?xml version="1.0" encoding="UTF-8"?>
<svg width="1200pt" height="1200pt" version="1.1" viewBox="0 0 1200 1200" xmlns="http://www.w3.org/2000/svg">
 <path d="m336.03 320.56c-4.0078 0-7.8516 1.5898-10.688 4.4258-2.832 2.832-4.4258 6.6758-4.4258 10.688v228.89c-32.426 21.156-53.43 56.801-53.43 104.38v195.12c-0.050781 4.0391 1.5156 7.9336 4.3555 10.812 2.8398 2.875 6.7148 4.4961 10.758 4.4961 4.043 0 7.918-1.6211 10.758-4.4961 2.8398-2.8789 4.4062-6.7734 4.3555-10.812v-43h604.57v43c-0.070312 4.0547 1.4883 7.9688 4.332 10.859 2.8398 2.8945 6.7266 4.5234 10.781 4.5234 4.0547 0 7.9414-1.6289 10.781-4.5234 2.8438-2.8906 4.4023-6.8047 4.3281-10.859v-58.051-0.074219-137.01c0-47.641-20.977-83.324-53.43-104.48v-228.8h0.003907c-0.003907-4.0078-1.5938-7.8516-4.4297-10.688-2.832-2.832-6.6758-4.4258-10.684-4.4258h-527.94zm15.113 30.227h497.71v198.62c-17.293-6.4375-36.281-10.406-56.305-12.445v-83.473l0.003906-0.007813c0-3.4336-1.1719-6.7656-3.3203-9.4453-2.1484-2.6797-5.1445-4.5508-8.4961-5.3008-15.633-3.4961-29.723 0.039062-41.461 3.3867s-21.637 6.4492-29.02 6.4492c-8.6133 0-18.734-3.4688-31.02-7.0898-12.281-3.6211-27.414-7.2031-44.074-2.5586v0.003906c-3.1797 0.88281-5.9844 2.7891-7.9805 5.418-1.9961 2.6289-3.0781 5.8359-3.0781 9.1367v81.77h-48.219v-81.77h0.003906c-0.003906-3.4336-1.1758-6.7695-3.3242-9.4492-2.1484-2.6836-5.1484-4.5508-8.5-5.2969-15.656-3.4922-29.762 0.039062-41.508 3.3906-11.746 3.3516-21.633 6.4492-28.965 6.4492-8.6641 0-18.793-3.4727-31.074-7.0898-12.277-3.6211-27.395-7.2031-44.031-2.5508l-0.003907-0.003906c-3.1758 0.88672-5.9727 2.7891-7.9688 5.418-1.9922 2.6289-3.0703 5.8359-3.0703 9.1328v83.5c-20.012 2.0547-39.004 6.0391-56.305 12.496zm303.19 116.25c4.9258 0.35547 10.215 1.6289 16.359 3.4414 10.918 3.2188 23.848 8.3242 39.566 8.3242 14.457 0 26.664-4.5703 37.309-7.6055 5.418-1.5469 10.301-2.707 14.758-3.2617v67.355c-1.6602-0.023437-3.3203-0.03125-4.9922-0.03125h-103v-68.223zm-216.66 0.003906c4.9023 0.35938 10.172 1.6328 16.301 3.4375 10.922 3.2188 23.879 8.3242 39.621 8.3242 14.434 0 26.613-4.5703 37.258-7.6055 5.4336-1.5508 10.332-2.7148 14.816-3.2656v67.328h-102.78c-1.7422 0-3.4805 0.015625-5.2148 0.039063v-68.258zm5.2148 98.441h314.45c42.316 0 79.633 7.7695 104.91 24.082 21.871 14.117 35.871 33.621 39.242 64.266h-602.97c3.3867-30.633 17.434-50.133 39.367-64.258 25.344-16.32 62.727-24.09 105-24.09zm-145.18 118.57h604.57v106.78h-604.57z" fill="currentColor" fill-rule="evenodd"/>
</svg>
