<?xml version="1.0" encoding="UTF-8"?>
<svg width="1200pt" height="1200pt" version="1.1" viewBox="0 0 1200 1200" xmlns="http://www.w3.org/2000/svg">
 <path d="m757.82 448.68c-9.8359 0.32812-19.156 4.4805-25.977 11.57-72.379 72.535-127.66 133.12-194.83 201.68l-71.559-60.457v0.003906c-7.668-6.4844-17.602-9.6523-27.609-8.8008-10.004 0.85156-19.262 5.6523-25.723 13.336-6.4648 7.6875-9.6016 17.629-8.7227 27.633s5.7031 19.246 13.406 25.691l98.242 83.129v-0.003907c7.2305 6.0898 16.477 9.25 25.918 8.8555 9.4453-0.39062 18.398-4.3086 25.094-10.98 81.391-81.566 139.33-146.71 219.16-226.71v0.003906c7.3555-7.1094 11.516-16.895 11.527-27.121 0.015625-10.23-4.1172-20.023-11.453-27.152-7.3359-7.1289-17.246-10.98-27.469-10.672z" fill="currentColor"/>
</svg>
