<?xml version="1.0" encoding="UTF-8"?>
<svg width="1200pt" height="1200pt" version="1.1" viewBox="0 0 1200 1200" xmlns="http://www.w3.org/2000/svg">
 <g fill="currentColor">
  <path d="m1175 675h-75c0-26.523-10.535-51.957-29.289-70.711-18.754-18.754-44.188-29.289-70.711-29.289-17.609 0.18359-34.855 5.0117-50 14v-14c0-35.727-19.059-68.738-50-86.602-30.941-17.863-69.059-17.863-100 0-30.941 17.863-50 50.875-50 86.602v100h-300v-100c0-35.727-19.059-68.738-50-86.602-30.941-17.863-69.059-17.863-100 0-30.941 17.863-50 50.875-50 86.602v14c-15.145-8.9883-32.391-13.816-50-14-26.523 0-51.957 10.535-70.711 29.289-18.754 18.754-29.289 44.188-29.289 70.711h-75c-6.6289 0-12.988 2.6328-17.676 7.3242-4.6914 4.6875-7.3242 11.047-7.3242 17.676v150c0 6.6289 2.6328 12.988 7.3242 17.676 4.6875 4.6914 11.047 7.3242 17.676 7.3242h75c0 26.523 10.535 51.957 29.289 70.711 18.754 18.754 44.188 29.289 70.711 29.289 17.609-0.18359 34.855-5.0117 50-14v14c0 35.727 19.059 68.738 50 86.602 30.941 17.863 69.059 17.863 100 0 30.941-17.863 50-50.875 50-86.602v-100h300v100c0 35.727 19.059 68.738 50 86.602 30.941 17.863 69.059 17.863 100 0 30.941-17.863 50-50.875 50-86.602v-14c15.145 8.9883 32.391 13.816 50 14 26.523 0 51.957-10.535 70.711-29.289 18.754-18.754 29.289-44.188 29.289-70.711h75c6.6289 0 12.988-2.6328 17.676-7.3242 4.6914-4.6875 7.3242-11.047 7.3242-17.676v-150c0-6.6289-2.6328-12.988-7.3242-17.676-4.6875-4.6914-11.047-7.3242-17.676-7.3242zm-1125 150v-100h50v100zm150 100c-13.262 0-25.98-5.2695-35.355-14.645s-14.645-22.094-14.645-35.355v-200c0-17.863 9.5312-34.371 25-43.301 15.469-8.9336 34.531-8.9336 50 0 15.469 8.9297 25 25.438 25 43.301v200c0 13.262-5.2695 25.98-14.645 35.355s-22.094 14.645-35.355 14.645zm200 50c0 17.863-9.5312 34.371-25 43.301-15.469 8.9336-34.531 8.9336-50 0-15.469-8.9297-25-25.438-25-43.301v-400c0-17.863 9.5312-34.371 25-43.301 15.469-8.9336 34.531-8.9336 50 0 15.469 8.9297 25 25.438 25 43.301zm50-150v-100h300v100zm450 150c0 17.863-9.5312 34.371-25 43.301-15.469 8.9336-34.531 8.9336-50 0-15.469-8.9297-25-25.438-25-43.301v-400c0-17.863 9.5312-34.371 25-43.301 15.469-8.9336 34.531-8.9336 50 0 15.469 8.9297 25 25.438 25 43.301zm150-100c0 17.863-9.5312 34.371-25 43.301-15.469 8.9336-34.531 8.9336-50 0-15.469-8.9297-25-25.438-25-43.301v-200c0-17.863 9.5312-34.371 25-43.301 15.469-8.9336 34.531-8.9336 50 0 15.469 8.9297 25 25.438 25 43.301zm100-50h-50v-100h50z"/>
  <path d="m582.5 568c4.6602 4.5078 10.891 7.0234 17.375 7.0234s12.715-2.5156 17.375-7.0234l186.5-181.25c29.648-28.305 46.426-67.508 46.426-108.5s-16.777-80.195-46.426-108.5c-26.918-25.824-62.012-41.43-99.215-44.125-37.203-2.6914-74.18 7.6992-104.54 29.375-30.355-21.676-67.332-32.066-104.54-29.375-37.203 2.6953-72.297 18.301-99.215 44.125-29.648 28.305-46.426 67.508-46.426 108.5s16.777 80.195 46.426 108.5zm-151.5-362.5c20.383-19.527 47.523-30.43 75.75-30.43s55.367 10.902 75.75 30.43c4.6602 4.5078 10.891 7.0234 17.375 7.0234s12.715-2.5156 17.375-7.0234c20.383-19.527 47.523-30.43 75.75-30.43s55.367 10.902 75.75 30.43c20.035 18.895 31.391 45.211 31.391 72.75s-11.355 53.855-31.391 72.75l-168.75 164.25-169-165.25c-20.035-18.895-31.391-45.211-31.391-72.75s11.355-53.855 31.391-72.75z"/>
  <path d="m557.25 392.75c4.6836 4.6562 11.02 7.2695 17.625 7.2695s12.941-2.6133 17.625-7.2695l100-100c5.5117-6.4375 7.3867-15.227 4.9844-23.352s-8.7578-14.48-16.883-16.883-16.914-0.52734-23.352 4.9844l-82.25 82.25-32.25-32.25c-6.4375-5.5117-15.227-7.3867-23.352-4.9844s-14.48 8.7578-16.883 16.883-0.52734 16.914 4.9844 23.352z"/>
 </g>
</svg>
