<?xml version="1.0" encoding="UTF-8"?>
<svg width="1200pt" height="1200pt" version="1.1" viewBox="0 0 1200 1200" xmlns="http://www.w3.org/2000/svg">
 <path d="m744 1170c-10.801 0-21.602-6-28.801-15.602-8.3984-13.199-6-31.199 6-42 79.199-70.801 112.8-154.8 98.398-248.4-10.801-69.602-44.398-127.2-73.199-164.4-6 25.199-16.801 50.398-36 69.602-8.3984 8.3984-21.602 12-33.602 8.3984-12-3.6016-20.398-13.199-22.801-25.199-10.801-57.602-49.199-128.4-104.4-170.4-7.1992 85.199-52.801 148.8-78 187.2-3.6016 6-7.1992 10.801-10.801 15.602l-2.3984 4.8008c-93.602 140.4-102 248.4-24 324 10.801 10.801 13.199 27.602 6 40.801-8.3984 13.199-24 19.199-38.398 14.398-127.2-40.805-210-114-247.2-218.41-50.398-144 0-319.2 72-428.4 15.602-24 32.398-48 49.199-70.801 87.602-124.8 163.2-232.8 142.8-384-1.1992-12 2.3984-22.801 12-30 8.3984-7.1992 21.602-9.6016 32.398-6 146.4 51.602 255.6 188.4 304.8 319.2 13.199-39.602 12-84 4.8008-111.6-3.6016-12 0-25.199 9.6016-33.602 9.6016-8.3984 22.801-10.801 34.801-6 94.801 39.602 249.6 309.6 247.2 543.6-0.003906 139.2-55.203 326.4-308.4 424.8-3.6016 1.1992-8.3984 2.3984-12 2.3984zm-254.4-1054.8c1.1992 147.6-76.801 258-158.4 374.4-15.602 22.801-32.398 45.602-48 69.602-61.199 92.398-108 247.2-64.801 369.6 19.199 55.199 55.199 99.602 108 132-22.801-73.199-13.199-174 78-309.6l2.3984-3.6016c3.6016-4.8008 7.1992-10.801 12-16.801 31.199-44.398 78-110.4 66-201.6-1.1992-12 3.6016-22.801 12-30 9.6016-7.1992 21.602-9.6016 32.398-4.8008 67.199 25.199 121.2 82.801 156 146.4 0-2.3984-1.1992-4.8008-1.1992-6-3.6016-12 1.1992-25.199 10.801-33.602 9.6016-8.3984 22.801-9.6016 34.801-4.8008 51.602 22.801 139.2 134.4 158.4 258 7.1992 49.199 7.1992 112.8-22.801 180 90-70.801 135.6-168 136.8-290.4 1.1992-175.2-88.801-350.4-154.8-433.2-4.8008 52.801-25.199 108-63.602 145.2-8.3984 8.3984-21.602 10.801-32.398 7.1992-12-3.6016-20.398-13.199-22.801-25.199-26.398-113.99-115.2-255.59-238.8-322.79z" fill="currentColor"/>
</svg>
