<?xml version="1.0" encoding="UTF-8"?>
<svg width="1200pt" height="1200pt" version="1.1" viewBox="0 0 1200 1200" xmlns="http://www.w3.org/2000/svg">
 <g fill="currentColor" fill-rule="evenodd">
  <path d="m162.4 990.57c-13.824 0-27.34-5.6875-37.074-15.598-9.6484-9.8398-14.828-22.707-14.578-36.281l8.0898-442.26c0.11719-6.4688 5.4766-11.594 11.934-11.496 6.4688 0.12109 11.621 5.4688 11.504 11.938l-8.0898 442.26c-0.13281 7.2266 2.6602 14.113 7.8672 19.41 5.3555 5.4688 12.777 8.5938 20.352 8.5938s14.992-3.125 20.352-8.5938c5.207-5.3008 8.0039-12.184 7.8711-19.41l-8.0938-442.26c-0.11719-6.4688 5.0312-11.816 11.504-11.938 6.4883-0.14844 11.812 5.0273 11.934 11.5l8.0898 442.26c0.25 13.574-4.9297 26.441-14.582 36.281-9.7383 9.9102-23.25 15.602-37.074 15.598z"/>
  <path d="m162.4 246.48c-41.039 0-75.711 56.742-75.711 123.88s34.672 123.85 75.711 123.85c41.039 0 75.711-56.715 75.711-123.85 0-67.141-34.672-123.88-75.711-123.88zm0 271.17c-27.473 0-52.926-16.012-71.672-45.066-17.719-27.492-27.477-63.793-27.477-102.22 0-38.453 9.7578-74.754 27.477-102.22 18.746-29.078 44.199-45.094 71.672-45.094s52.926 16.016 71.672 45.094c17.719 27.465 27.477 63.77 27.477 102.22 0 38.426-9.7578 74.73-27.477 102.22-18.746 29.051-44.199 45.07-71.672 45.066z"/>
  <path d="m1125 413.96h-175.05c-6.4727 0-11.723-5.2461-11.723-11.719 0-6.4688 5.25-11.719 11.723-11.719h175.05c6.4727 0 11.719 5.25 11.719 11.719s-5.2461 11.719-11.719 11.719z"/>
  <path d="m949.98 413.96c-6.4727 0-11.723-5.2461-11.723-11.719v-181.11c0-6.4727 5.25-11.719 11.723-11.719 6.4727 0 11.719 5.25 11.719 11.719v181.11c0 6.4688-5.2461 11.719-11.719 11.719z"/>
  <path d="m1008.3 413.96c-6.4727 0-11.723-5.2461-11.723-11.719v-181.11c0-6.4727 5.25-11.719 11.719-11.719s11.719 5.25 11.719 11.719v181.11c0 6.4688-5.25 11.719-11.719 11.719z"/>
  <path d="m1066.7 413.96c-6.4727 0-11.719-5.2461-11.719-11.719v-181.11c0-6.4727 5.2461-11.719 11.719-11.719 6.4727 0 11.719 5.25 11.719 11.719v181.11c0 6.4688-5.2461 11.719-11.719 11.719z"/>
  <path d="m1125 413.96c-6.4727 0-11.719-5.2461-11.719-11.719v-181.11c0-6.4727 5.2461-11.719 11.719-11.719s11.719 5.25 11.719 11.719v181.11c0 6.4688-5.2461 11.719-11.719 11.719z"/>
  <path d="m961.69 413.96v27.637c0 19.117 14.242 35.742 33.133 38.695 12.945 2.0234 22.172 13.012 21.941 26.098l-7.4883 431.42c-0.125 7.2266 2.6758 14.137 7.8906 19.438 5.3555 5.4688 12.762 8.5938 20.328 8.5938 7.5625 0 14.973-3.125 20.328-8.5938 5.2148-5.2969 8.0195-12.207 7.8945-19.434l-7.4883-431.42c-0.23047-13.086 9-24.074 21.941-26.098 18.891-2.9531 33.137-19.578 33.137-38.695v-27.637h-151.61zm75.805 575.32c-13.809 0-27.312-5.6875-37.047-15.598-9.6562-9.8164-14.844-22.707-14.609-36.281l7.4922-431.42c0.023438-1.2969-0.83203-2.3203-2.125-2.5156-30.188-4.7148-52.953-31.301-52.953-61.867v-39.355c0-6.4688 5.2461-11.719 11.719-11.719h175.05c6.4727 0 11.719 5.25 11.719 11.719v39.355c0 30.562-22.77 57.152-52.961 61.867-1.293 0.19531-2.1445 1.2227-2.125 2.5156l7.4922 431.42c0.23437 13.574-4.9531 26.465-14.613 36.281-9.7344 9.9102-23.234 15.602-37.043 15.598z"/>
  <path d="m600 285.52c-173.41 0-314.48 141.07-314.48 314.48s141.08 314.48 314.48 314.48c173.41-0.003906 314.48-141.07 314.48-314.48 0-173.41-141.08-314.48-314.48-314.48zm0 652.39c-186.33 0-337.92-151.59-337.92-337.91s151.59-337.91 337.92-337.91 337.92 151.59 337.92 337.91-151.59 337.91-337.92 337.91z"/>
  <path d="m600 346.29c-139.89 0-253.7 113.82-253.7 253.71s113.81 253.71 253.7 253.71 253.7-113.82 253.7-253.71c0-139.89-113.81-253.71-253.7-253.71zm0 530.86c-152.82 0-277.14-124.34-277.14-277.15s124.32-277.15 277.14-277.15 277.14 124.34 277.14 277.15c0 152.8-124.32 277.15-277.14 277.15z"/>
  <path d="m714.36 568.11c-18.543 0-37.973 4.5898-54.254 11.574-20.586 8.8359-38.863 14.086-53.555 18.285-31.98 9.1523-43.219 13.305-46.773 32.52-11.57 62.672 53.859 114.8 90.715 124 28.879 7.2266 61.848 13.527 87.66-3.2461 20.812-13.5 35.043-41.258 42.301-82.52 7.2891-41.457 0.71094-70.605-19.566-86.668-12.496-9.8906-29.121-13.941-46.527-13.941zm-16.539 217.21c-20.664 0-39.887-4.8086-53.012-8.1016-45.355-11.328-122.45-73.168-108.08-150.98 6.3672-34.5 31.523-41.699 63.371-50.805 14.785-4.2227 31.539-9.0352 50.762-17.285 35.184-15.09 88.918-22.703 124.58 5.543 18.934 14.988 39.184 46.094 28.098 109.08-8.4297 47.922-26.137 80.934-52.621 98.121-16.812 10.938-35.48 14.43-53.094 14.426z"/>
  <path d="m673.68 635.01c-16.543 0-30 13.453-30 30.008 0 16.551 13.457 30.004 30 30.004 16.543 0 30.004-13.453 30.004-30.004 0-16.555-13.461-30.004-30-30.008zm0 83.445c-29.469 0-53.441-23.973-53.441-53.441s23.973-53.441 53.441-53.441 53.441 23.977 53.441 53.441c0 29.469-23.973 53.441-53.441 53.441z"/>
  <path d="m486.94 731.37c-1.4102 0-2.8047-0.023438-4.1914-0.097656-33.211-1.8086-67.945-24.559-70.684-71.387-1.1602-19.898-6.1445-28.125-11.906-37.695-6.7383-11.16-14.371-23.805-14.711-51.906-0.28906-24.121 6.0195-44.141 18.746-59.473 17.156-20.68 45.008-31.398 82.773-31.887h0.30078c37.77 0.48828 65.617 11.207 82.773 31.887 12.73 15.332 19.035 35.352 18.746 59.473-0.13672 11.52-1.4922 21.266-4.1406 29.836-1.9102 6.1758-8.4727 9.6445-14.66 7.7383-6.1836-1.9062-9.6445-8.4727-7.7344-14.672 1.9727-6.3711 2.9844-13.965 3.0977-23.168 0.53125-44.168-25.793-66.945-78.234-67.652-52.441 0.70703-78.762 23.484-78.234 67.652 0.26172 21.703 5.3945 30.227 11.34 40.062 6.4414 10.668 13.738 22.777 15.238 48.438 2.0234 34.594 27.418 48.219 48.547 49.34 23.105 1.293 48.77-11.305 53.949-42.211 1.0703-6.3711 7.1133-10.695 13.492-9.6211 6.3828 1.0742 10.691 7.1289 9.6172 13.5-7.2031 42.992-42.652 61.84-74.129 61.84z"/>
  <path d="m524.13 564.11h-74.039c-6.4727 0-11.719-5.2461-11.719-11.719 0-6.4688 5.2461-11.719 11.719-11.719h74.039c6.4727 0 11.723 5.25 11.723 11.719s-5.25 11.719-11.723 11.719z"/>
  <path d="m512.32 616.87h-50.406c-6.4727 0-11.723-5.25-11.723-11.719s5.25-11.719 11.723-11.719l50.41-0.003906c6.4727 0 11.719 5.25 11.719 11.723 0 6.4688-5.2461 11.719-11.719 11.719z"/>
  <path d="m506.02 669.65h-37.809c-6.4727 0-11.719-5.25-11.719-11.719 0-6.4727 5.2461-11.719 11.719-11.719l37.809-0.003906c6.4727 0 11.719 5.25 11.719 11.719s-5.2461 11.719-11.719 11.719z"/>
  <path d="m625.09 394.19c-19.148 0-34.727 15.578-34.727 34.719 0 19.164 15.578 34.742 34.727 34.742 3.2695 0 6.5195-0.46484 9.6367-1.3672-0.066407-1.1484-0.10156-2.293-0.10156-3.4414 0-17.75 8.0977-34.324 21.637-45.266-5.7188-11.723-17.648-19.383-31.176-19.387zm0 92.895c-32.074 0-58.164-26.098-58.164-58.176 0-32.059 26.09-58.156 58.164-58.156 27.102 0 50.375 18.406 56.602 44.75 1.207 5.1016-1.1289 10.398-5.7188 12.938-11.047 6.1289-17.906 17.773-17.906 30.395 0 2.7109 0.3125 5.3945 0.93359 8.0078 1.207 5.125-1.1289 10.402-5.7188 12.965-8.582 4.7617-18.328 7.2773-28.188 7.2734z"/>
  <path d="m692.79 424.09c-19.148 0-34.727 15.578-34.727 34.742 0 19.141 15.578 34.719 34.727 34.719 19.148 0 34.727-15.574 34.727-34.719 0-19.168-15.578-34.742-34.727-34.742zm0 92.895c-32.07 0-58.164-26.098-58.164-58.152 0-32.082 26.094-58.18 58.164-58.18 32.07 0 58.164 26.098 58.164 58.18 0 32.055-26.094 58.152-58.164 58.152z"/>
 </g>
</svg>
