<?xml version="1.0" encoding="UTF-8"?>
<svg width="1200pt" height="1200pt" version="1.1" viewBox="0 0 1200 1200" xmlns="http://www.w3.org/2000/svg">
 <path d="m873.82 865.14h-98.043v-30.281l72.77-0.50781c42.523-0.32031 79.895-24.543 97.5-63.242 17.625-38.699 11.363-82.801-16.332-115.09l-92.664-108.02c-6.8242-7.9492-14.492-15.02-22.52-21.637 41.945-50.156 65.008-112.82 65.008-178.91 0-154.26-125.4-279.75-279.56-279.75-154.16 0-279.56 125.49-279.56 279.75 0 66.094 23.062 128.76 65.008 178.91-8.0234 6.6367-15.695 13.707-22.52 21.637l-92.664 108.02c-27.695 32.289-33.957 76.367-16.332 115.09 17.605 38.699 54.977 62.926 97.52 63.242l72.75 0.50781v30.281h-98.043c-73.633 0-133.54 59.906-133.54 133.54 0 41.344 18.676 79.688 51.242 105.15 23.832 18.656 52.555 28.426 81.977 28.426 10.781 0 21.656-1.293 32.418-3.9766l241.77-59.887 241.73 59.867c40.164 9.9766 81.844 1.0703 114.39-24.449 32.57-25.461 51.242-63.805 51.242-105.15 0-73.613-59.906-133.52-133.54-133.52zm-515.89-517.71c0-133.57 108.6-242.25 242.06-242.25s242.06 108.68 242.06 242.25c0 58.52-20.945 113.95-58.875 157.84-8.043-4.2383-16.312-8.0234-24.938-11.043l-42.301-14.758c37.574-33 59.832-80.906 59.832-132.11 0-96.918-78.863-175.78-175.78-175.78s-175.78 78.863-175.78 175.78c0 51.168 22.258 99.113 59.852 132.11l-42.301 14.758c-8.625 3-16.895 6.8047-24.938 11.043-37.949-43.891-58.895-99.297-58.895-157.84zm-6.2266 449.4c-28.18-0.20703-51.977-15.637-63.656-41.289-11.68-25.633-7.6875-53.719 10.648-75.113l92.664-108.02c16.762-19.539 38.457-34.312 62.719-42.77l76.762-26.773c6.9922-2.4375 11.906-8.7734 12.508-16.145 0.61719-7.4062-3.168-14.457-9.6758-18-44.398-24.336-71.98-70.82-71.98-121.37 0-76.238 62.043-138.28 138.28-138.28s138.28 62.043 138.28 138.28c0 50.531-27.582 97.051-71.98 121.37-6.5078 3.543-10.293 10.594-9.6758 18 0.61719 7.3867 5.5117 13.707 12.508 16.145l76.762 26.773c24.262 8.457 45.957 23.25 62.699 42.77l92.664 108.02c18.355 21.395 22.332 49.48 10.648 75.113-11.68 25.648-35.477 41.082-63.656 41.289l-193.8 0.63672c-19.707 0-35.738-16.012-35.738-35.719v-113.18h7.0312c11.57 0 22.086 6.375 27.43 16.633l23.023 43.988c3.2422 6.168 9.6367 10.051 16.613 10.051h75.562c10.352 0 18.75-8.3828 18.75-18.75s-8.3984-18.75-18.75-18.75h-64.199l-17.758-33.918c-11.852-22.668-35.102-36.75-60.676-36.75h-51.5c-25.574 0-48.824 14.082-60.676 36.73l-17.758 33.938h-64.199c-10.352 0-18.75 8.3828-18.75 18.75s8.3984 18.75 18.75 18.75h75.562c6.9766 0 13.367-3.8828 16.613-10.051l23.023-44.008c5.3633-10.238 15.883-16.613 27.43-16.613l7.0352 0.003906v113.18c0 19.707-16.031 35.719-35.738 35.719zm581.29 277.46c-23.418 18.355-53.383 24.75-82.273 17.586l-246.15-60.977c-0.039063 0-0.054687-0.039062-0.074219-0.039062l-132.13-32.719c-10.031-2.418-20.211 3.6367-22.707 13.688-2.4922 10.051 3.6367 20.211 13.688 22.707l58.688 14.531-172.78 42.805c-28.855 7.1992-58.836 0.76953-82.258-17.586-23.438-18.336-36.863-45.883-36.863-75.617 0-52.949 43.07-96.039 96.039-96.039h236.74c10.352 0 18.75-8.3828 18.75-18.75s-8.3984-18.75-18.75-18.75h-101.2v-30.148h83.793c21.73 0 41.062-9.6953 54.488-24.77 13.426 15.074 32.758 24.77 54.488 24.77h83.793v48.898c0 10.367 8.3984 18.75 18.75 18.75h116.79c52.949 0 96.039 43.086 96.039 96.039 0 29.738-13.426 57.281-36.863 75.621z" fill="currentColor"/>
</svg>
