<?xml version="1.0" encoding="UTF-8"?>
<svg width="1200pt" height="1200pt" version="1.1" viewBox="0 0 1200 1200" xmlns="http://www.w3.org/2000/svg">
 <g fill="currentColor">
  <path d="m549 468v255l312.5 313c14.5 14.5 14.5 38.5 0 53-7.5 7.5-17 11-26.5 11s-19-3.5-27-10.5l-297-297-297 297c-14.5 14.5-38.5 14.5-53 0s-14.5-38.5 0-53l313-313v-262c0-2.5 0.5-4.5 1.5-7-1-2.5-1.5-5-1.5-8v-281c0-10 3.5-19.5 11-26.5 6.5-6.5 44-39 139-39 47.145 0 86.883 15.273 122.33 28.898 1.3984 0.53906 2.7852 1.0703 4.168 1.6016l0.6875 0.27344c32.25 12.902 63.062 25.227 97.812 25.227 64.5 0 87.5-18.5 87.5-18.5 11-9 27.5-11.5 40.5-5.5 13 6.5 22 19 22 33.5v281.5c0 10-4 19.5-11 26.5-6.5 6.5-44 39-139 39-49.5 0-90.5-16.5-126.5-31l-0.6875-0.27344c-32.25-12.902-63.059-25.227-97.812-25.227-38.5 0-62.5 6.5-75 12zm75-293c-39 0-62.5 6.5-75 12v202.5c19.5-4.5 44.5-8 75-8 49.5 0 90.5 16.5 126.5 31l0.6875 0.27344c32.25 12.902 63.062 25.227 97.812 25.227 38.5 0 62-6.5 75-12v-202.5c-19.5 4.5-44.5 8-75 8-49.5 0-90.5-16.5-126.5-31l-0.6875-0.27344c-32.25-12.902-63.059-25.227-97.812-25.227z" fill-rule="evenodd"/>
  <path d="m808 712.5 231 231c14.5 14.5 14.5 38.5 0 53-7.5 7.5-17 11-26.5 11s-19-3.5-26.5-11l-204.5-204.5-20 20c-14.5 14.5-38.5 14.5-53 0s-14.5-38.5 0-53l46.5-46.5c14.5-14.5 38.5-14.5 53 0z"/>
 </g>
</svg>
