<?xml version="1.0" encoding="UTF-8"?>
<svg width="1200pt" height="1200pt" version="1.1" viewBox="0 0 1200 1200" xmlns="http://www.w3.org/2000/svg">
 <path d="m1038 744h-6v-210c0-11.141-4.4258-21.82-12.301-29.699-7.8789-7.875-18.559-12.301-29.699-12.301h-27.719c35.996-21.957 65.73-52.809 86.348-89.59 20.617-36.777 31.422-78.246 31.371-120.41v-21.961l-21.602 3.9609c-130.16 24.477-263.59 26.141-394.32 4.9219-43.758-7.2734-88.676-2.375-129.84 14.156-44.617 18.809-82.684 50.379-109.41 90.754-26.734 40.375-40.934 87.746-40.824 136.17v21.602l21.238-3.6016c17.641-3.2383 36-5.8789 53.52-8.2812h0.003907c-1.7539 4.5625-2.6875 9.3945-2.7617 14.281v210h-342c-6.4297 0-12.375 3.4297-15.59 9s-3.2148 12.43 0 18 9.1602 9 15.59 9h924c10.719 0 20.621 5.7188 25.98 15s5.3594 20.719 0 30-15.262 15-25.98 15h-924c-6.4297 0-12.375 3.4297-15.59 9s-3.2148 12.43 0 18 9.1602 9 15.59 9h924c23.578 0 45.367-12.578 57.156-33 11.793-20.422 11.793-45.578 0-66-11.789-20.422-33.578-33-57.156-33zm-616.92-255.6c3.8164-37.441 17.641-73.164 40.02-103.42 22.383-30.258 52.496-53.93 87.184-68.535 35.047-14.035 73.273-18.184 110.52-12 127.21 20.43 256.88 20.145 384-0.83984-3.2773 37.414-16.785 73.207-39.047 103.46-22.258 30.254-52.41 53.797-87.156 68.059-34.746 14.262-72.742 18.691-109.84 12.805-66.016-9.1211-132.56-13.812-199.2-14.043-62.449-0.16797-124.81 4.6875-186.48 14.52zm574.92 255.6h-504v-210c0-3.3125 2.6875-6 6-6h35.16v162c0 6.4297 3.4297 12.375 9 15.59 5.5703 3.2148 12.43 3.2148 18 0 5.5703-3.2148 9-9.1602 9-15.59v-162h41.16v162c0 6.4297 3.4297 12.375 9 15.59 5.5703 3.2148 12.43 3.2148 18 0 5.5703-3.2148 9-9.1602 9-15.59v-162h41.16v162c0 6.4297 3.4297 12.375 9 15.59 5.5703 3.2148 12.43 3.2148 18 0 5.5703-3.2148 9-9.1602 9-15.59v-162h41.16v162c0 6.4297 3.4297 12.375 9 15.59s12.43 3.2148 18 0 9-9.1602 9-15.59v-162h41.16v162c0 6.4297 3.4297 12.375 9 15.59 5.5703 3.2148 12.43 3.2148 18 0 5.5703-3.2148 9-9.1602 9-15.59v-162h41.16v162c0 6.4297 3.4297 12.375 9 15.59 5.5664 3.2148 12.43 3.2148 18 0 5.5664-3.2148 9-9.1602 9-15.59v-162h35.039c1.5898 0 3.1172 0.63281 4.2422 1.7578s1.7578 2.6523 1.7578 4.2422z" fill="currentColor"/>
</svg>
